<svg xmlns="http://www.w3.org/2000/svg" id="svg8" version="1.1" viewBox="0 0 135.467 135.467" height="512" width="512"><g transform="translate(0 -288.533)" id="layer1"><path id="rect37" style="fill:#f60;stroke:none;stroke-width:25.4px;stroke-linecap:round;stroke-linejoin:round" d="M0 288.533h135.467V424H0z"/><path style="stroke-width:.264583px;fill:#fff" fill-rule="evenodd" d="M118.798 356.243a51.065 51.065 0 1 1-102.13 0 51.065 51.065 0 0 1 102.13 0zm-25.34-19.34a4.787 4.787 0 0 0-6.895.144l-22.168 28.245-13.36-13.366a4.787 4.787 0 0 0-6.766 6.766l16.89 16.896a4.787 4.787 0 0 0 6.887-.12l25.481-31.852a4.787 4.787 0 0 0-.062-6.702z" id="path8"/></g></svg>