<?xml version="1.0" encoding="UTF-8" standalone="no"?>
<svg
 xmlns:dc="http://purl.org/dc/elements/1.1/"
 xmlns:cc="http://creativecommons.org/ns#"
 xmlns:rdf="http://www.w3.org/1999/02/22-rdf-syntax-ns#"
 xmlns:svg="http://www.w3.org/2000/svg"
 xmlns="http://www.w3.org/2000/svg"
 xmlns:sodipodi="http://sodipodi.sourceforge.net/DTD/sodipodi-0.dtd"
 xmlns:inkscape="http://www.inkscape.org/namespaces/inkscape"
 inkscape:export-ydpi="960"
 inkscape:export-xdpi="960"
 inkscape:export-filename="C:\Workspaces\todo\public\logo512.png"
 sodipodi:docname="logo512.svg"
 inkscape:version="1.0 (4035a4fb49, 2020-05-01)"
 id="svg8"
 version="1.1"
 viewBox="0 0 135.46666 135.46667"
 height="512"
 width="512">
<defs
 id="defs2" />
<sodipodi:namedview
 inkscape:document-rotation="0"
 inkscape:snap-smooth-nodes="true"
 inkscape:bbox-nodes="true"
 inkscape:bbox-paths="true"
 inkscape:snap-bbox="true"
 units="px"
 showgrid="true"
 inkscape:current-layer="layer1"
 inkscape:document-units="px"
 inkscape:cy="198.03986"
 inkscape:cx="311.55282"
 inkscape:zoom="1.1649308"
 inkscape:pageshadow="2"
 inkscape:pageopacity="0.0"
 borderopacity="1.0"
 bordercolor="#666666"
 pagecolor="#ffffff"
 id="base">
<inkscape:grid
 visible="true"
 empspacing="2"
 spacingy="0.13229167"
 spacingx="0.13229167"
 id="grid10"
 type="xygrid" />
</sodipodi:namedview>
<metadata
 id="metadata5">
<rdf:RDF>
<cc:Work
 rdf:about="">
<dc:format>image/svg+xml</dc:format>
<dc:type
 rdf:resource="http://purl.org/dc/dcmitype/StillImage" />
<dc:title></dc:title>
</cc:Work>
</rdf:RDF>
</metadata>
<g
 transform="translate(0,-288.53332)"
 id="layer1"
 inkscape:groupmode="layer"
 inkscape:label="Layer 1">
<rect
 y="288.53333"
 x="0"
 height="135.46666"
 width="135.46666"
 id="rect37"
 style="fill:#ff6600;stroke:none;stroke-width:25.4;stroke-linecap:round;stroke-linejoin:round" />
<path
 style="stroke-width:0.264583;fill:#ffffff"
 fill-rule="evenodd"
 d="m 118.79791,356.24295 a 51.064583,51.064583 0 1 1 -102.129155,0 51.064583,51.064583 0 0 1 102.129155,0 z M 93.457111,336.90218 a 4.7873046,4.7873046 0 0 0 -6.893721,0.14475 L 64.394976,365.29199 51.035203,351.92578 a 4.7873046,4.7873046 0 0 0 -6.76605,6.7661 l 16.889599,16.89594 a 4.7873046,4.7873046 0 0 0 6.88735,-0.12062 l 25.481212,-31.85152 a 4.7873046,4.7873046 0 0 0 -0.06273,-6.70217 z"
 id="path8" />
</g>
</svg>
